<svg version="1.1" id="s3" xmlns="http://www.w3.org/2000/svg" xmlns:xlink="http://www.w3.org/1999/xlink" x="0px" y="0px" width="100%" height="770px" viewBox="0 0 1440 770" style="height: 795px;" xml:space="preserve">
			<style type="text/css">
			
				.st70{clip-path:url(#SVGID_2_);fill:#444444;}
				.st71{clip-path:url(#SVGID_2_);}
				.st73{fill:#444444;}
			
			</style>
			<path class="st73" d="M162.2,596.7c-0.3,0-0.7-0.1-1-0.1v50.7l1-0.3V596.7z"></path>
			<path class="st73" d="M161.2,664.9v48.1c0,6.4-6.2,6.8-6.5,6.8L52.2,724c-6.4,0.3-6.5-6-6.5-6.2v-179c0-6.4,6.2-6.5,6.5-6.5h102.5
				c6.4,0,6.5,6.2,6.5,6.5v42.6c0.3,0,0.7,0.1,1,0.1v-42.7c0-0.1-0.1-7.5-7.5-7.5H52.2c-0.1,0-7.5,0.1-7.5,7.5v179
				c0,0.1,0.1,7.2,7.1,7.2c0.1,0,0.3,0,0.4,0l102.5-4.3c0.1,0,7.5-0.4,7.5-7.8v-48.3C161.9,664.7,161.5,664.8,161.2,664.9z"></path>
			<path class="st73" d="M459.8,535.4c-0.7,0-1.2-0.1-1.3-0.1c0,0-0.1,0-0.1,0L50.4,354.9c-0.2-0.1-0.3-0.3-0.3-0.5
				c0-0.6,4.9-62.2,39.8-107.8c10.3-11.3,19.8-13.2,30.8-12.5l2.4,0.1c42.4,2.4,67,4.9,73.1,7.3c7.4,2.9,273.2,102.4,400.9,150.2
				c44.3,16.6,73.6,27.5,75.9,28.4c10.4,3.9,7.6,11.5,6.1,15.6c-19.4,48.8-67.2,95-67.6,95.4c-0.1,0.1-0.3,0.2-0.5,0.1l-40.1-15.7
				c-0.3-0.1-0.4-0.4-0.3-0.6s0.4-0.4,0.6-0.3l39.8,15.5c3.6-3.5,48.6-48,67.2-94.9c1.4-3.7,2.4-7.7-0.2-10.9
				c-0.1,0.1-0.2,0.1-0.3,0.1c-0.6,0-58-1-78.3-1c-17,0-25.5,6.1-35.4,13.2c-1.9,1.4-4,2.8-6.1,4.3c-17.6,11.9-85.3,76.1-92.2,90.9
				C464.3,534.9,461.5,535.4,459.8,535.4z M458.8,534.3c0.5,0.1,4.3,0.6,6-2.7c6.9-14.8,74.9-79.4,92.5-91.3c2.1-1.4,4.1-2.9,6.1-4.3
				c10-7.2,18.7-13.4,36-13.4c19.2,0,71.3,0.9,77.7,1c-1.1-0.9-2.5-1.8-4.4-2.5c-2.3-0.9-31.6-11.8-75.9-28.4
				c-137.6-51.5-393.6-147.3-401-150.2c-6-2.4-30.5-4.9-72.8-7.3l-2.4-0.1c-8.6-0.5-18.8,0-30,12.2C57.3,290.8,51.5,349,51.1,354.1
				L458.8,534.3z"></path>
			<path class="st73" d="M600.4,423.6c-0.1,0-0.1,0-0.2,0l-479.6-188c-0.3-0.1-0.4-0.4-0.3-0.6c0.1-0.3,0.4-0.4,0.6-0.3l479.6,188
				c0.3,0.1,0.4,0.4,0.3,0.6C600.7,423.5,600.6,423.6,600.4,423.6z"></path>
			<path class="st73" d="M568.3,433.4c-0.1,0-0.1,0-0.2,0L92.8,246.7c-0.3-0.1-0.4-0.4-0.3-0.6c0.1-0.3,0.4-0.4,0.6-0.3l475.3,186.6
				c0.3,0.1,0.4,0.4,0.3,0.6C568.7,433.3,568.5,433.4,568.3,433.4z"></path>
			<path class="st73" d="M455.5,580.3c-0.4,0-9-0.7-14-3.7c-4.8-2.9-328.6-150.8-331.9-152.2c-0.6-0.2-14-6.3-15-16.2
				c-0.4-4.1-0.7-7.5-0.9-10.4c-0.3-4.1-0.5-7.3-1.1-10.7c-0.4-2.5-2.3-4.7-4.2-7c-2.5-2.9-5.3-6.2-5.6-10.7c0-0.3,0.2-0.5,0.5-0.5
				c0.3,0,0.5,0.2,0.5,0.5c0.3,4.2,2.8,7.2,5.3,10.1c2.1,2.4,4,4.7,4.5,7.5c0.5,3.4,0.8,6.7,1.1,10.8c0.2,2.9,0.5,6.3,0.9,10.4
				c0.9,9.4,14.3,15.4,14.4,15.4c13.4,6.1,327.1,149.4,332,152.3c4.7,2.8,13.4,3.6,13.5,3.6c0.6,0,66.5,0,73.2-2.9
				c1.1-0.5,2.2-0.9,3.2-1.3c5.1-2,8.8-3.4,15.2-12.3c18-27.6,27.6-63.4,29.3-70.3c5.3-21.2,4.9-65,4.9-65.5c0-0.3,0.2-0.5,0.5-0.5
				c0,0,0,0,0,0c0.3,0,0.5,0.2,0.5,0.5c0,0.4,0.4,44.4-4.9,65.7c-1.7,6.9-11.3,42.9-29.4,70.6c-6.7,9.2-10.6,10.7-15.7,12.6
				c-1,0.4-2,0.8-3.1,1.3C522.2,580.2,458.2,580.3,455.5,580.3z"></path>
			<path class="st73" d="M437.2,574.1c-0.1,0-0.2,0-0.3-0.1c-0.2-0.2-5.4-4.9-6.1-16.7c-0.7-11.6-0.3-34.1-0.3-34.3
				c0-0.3,0.2-0.5,0.5-0.5c0,0,0,0,0,0c0.3,0,0.5,0.2,0.5,0.5c0,0.2-0.4,22.6,0.3,34.2c0.7,11.4,5.7,16,5.8,16c0.2,0.2,0.2,0.5,0,0.7
				C437.5,574,437.4,574.1,437.2,574.1z"></path>
			<path class="st73" d="M370.9,544C370.9,544,370.8,544,370.9,544c-0.6,0-13.4-0.9-15.9-1.2c-2.1-0.2-6.4-1.7-8.4-2.7
				c-1.9-1-101.8-48.4-102.8-48.9c-0.3-0.1-3.2-1.1-3.2-3.1v-3.2c0-0.3,0.2-0.5,0.5-0.5s0.5,0.2,0.5,0.5v3.2c0,1.1,1.9,2,2.6,2.2
				c1.1,0.5,100.9,48,102.8,49c1.9,1,6.2,2.4,8.1,2.6c2.5,0.3,15.7,1.2,15.8,1.2c0.3,0,0.5,0.3,0.5,0.5
				C371.3,543.8,371.1,544,370.9,544z"></path>
			<path class="st70" d="M353.1,591.1c-0.8,0.3-1.6,0.5-2.4,0.5c-1.1,0-2.8,0-5,0.1c3.8,0.2,6.4,0.3,6.8,0.3c1.8,0.4,4.7,1.4,5,2.6
				c0.6,2.3,1.3,7.9-0.4,9.6c-1.4,1.4-3.1,1.5-3.7,1.5c0,0,0,0,0,0c-0.2,0-0.3,0-0.3,0c-0.1,0-0.3,0-0.4,0.1c-0.1,0.1-0.2,0.2-0.2,0.4
				c0,0.4-0.5,9.8-0.5,11.8c0,1.6-2,2.4-2.8,2.4c-0.5,0-11.4,0.2-22.1,0.6c-17.6,0.6-21,1-21.6,1.5c-3.9,1.8-122.8,35.8-185.5,53.6
				l-25.5,0.1v-8.9L285,611.6c0.2-0.1,0.4-0.2,0.4-0.5l0.2-4.9c0-0.3-0.2-0.5-0.5-0.5c-2-0.2-203.6-15.7-206.5-16.1
				c-2.4-0.4-3.7-2.6-4-3.1l-0.2-3c0-0.2-0.2-4.3,5.2-5.5c1.5-0.3,5.5-0.5,12.3-0.5c6.7,0,15.1,0.2,22.6,0.3
				c8.2,0.2,15.7,0.3,18.9,0.2c6.8-0.2,8.8,0.7,10.8,1.5c0.5,0.2,1.1,0.5,1.8,0.7c6.8,2,129,9.5,134.3,9.8c0.1,0,0.2,0,0.3,0
				c-0.2-0.3-0.5-0.6-0.8-1c-8.5-0.5-127-7.9-133.5-9.7c-0.6-0.2-1.1-0.4-1.7-0.7c-2.1-0.9-4.2-1.8-11.2-1.6c-3.2,0.1-10.7,0-18.9-0.2
				c-7.5-0.1-15.9-0.3-22.6-0.3c-6.8,0-10.9,0.2-12.5,0.5c-6.2,1.4-6,6.5-6,6.5l0.2,3.1c0,0.1,0,0.1,0.1,0.2c0.1,0.1,1.6,3.2,4.8,3.7
				c2.9,0.5,192.6,15.1,206.1,16.1l-0.2,4.1L94,666.4c-0.2,0.1-0.4,0.3-0.4,0.5v9.8c0,0.1,0.1,0.3,0.1,0.4c0.1,0.1,0.2,0.1,0.4,0.1
				c0,0,0,0,0,0l26-0.1c0,0,0.1,0,0.1,0c0.5-0.1,47-13.3,92.9-26.5c27-7.7,48.4-13.9,63.9-18.4c26.5-7.7,29.1-8.6,29.4-9.1
				c0,0.1-0.1,0.2-0.2,0.2c1.9-0.8,41.1-1.8,43.1-1.8c1.3,0,3.8-1.2,3.8-3.4c0-1.7,0.4-9.2,0.5-11.2c0.9,0,2.7-0.3,4.3-1.8
				c2.5-2.5,0.6-10.5,0.6-10.5C358,592.4,354.4,591.4,353.1,591.1z"></path>
			<path class="st73" d="M305,592.9c-19.9,0-23.4-0.9-24.2-1.7c-1.9-1.9-5.6-8.2-8.9-13.7c-1.8-3-3.4-5.8-4.4-7.3
				c-1.5-2.2-0.9-4.2-0.3-5.2c0.9-1.6,2.5-2.8,4-2.8c0.6,0,1.2,0.2,1.6,0.6c0.4,0.4,0.9,1,1.6,2c3.2,4.4,9.9,13.5,19.6,13.5
				c8,0,14.5-6.8,17.7-10.9c1.8-2.4,4.6-3.8,7.3-3.8c6-0.1,15-0.1,23.9-0.1c11.3,0,19.2,0.1,23.3,0.3c1.1,0.1,2,0.5,2.6,1.4
				c0.6,1,0.7,2.2,0.3,3.5c-0.3,1-8.6,23.5-18.2,23.5c-2.1,0-6.3,0.1-11.7,0.2C329.5,592.6,316.4,592.9,305,592.9z M271.1,563.2
				c-1.1,0-2.4,1-3.1,2.2c-0.4,0.8-0.9,2.4,0.3,4.2c1.1,1.6,2.7,4.4,4.5,7.4c3.1,5.2,6.9,11.7,8.8,13.5c0.5,0.5,4.3,1.4,23.4,1.4
				c11.4,0,24.5-0.3,34.1-0.5c5.4-0.1,9.6-0.2,11.7-0.2c6.6,0,13.9-13.7,17.3-22.8c0.3-1,0.3-1.9-0.2-2.6c-0.4-0.6-1-0.9-1.8-0.9
				c-4.1-0.2-12-0.3-23.3-0.3c-8.9,0-17.9,0.1-23.9,0.1c-2.4,0-4.8,1.3-6.5,3.4c-3.3,4.2-10,11.3-18.5,11.3
				c-10.2,0-17.1-9.4-20.4-13.9c-0.6-0.9-1.1-1.6-1.5-1.9C271.8,563.3,271.5,563.2,271.1,563.2z"></path>
			<path class="st73" d="M273.3,564.6c-0.2,0-0.4-0.1-0.5-0.3c-0.1-0.2-5.9-16.7-5.4-29.5c0.7-17.5,2.2-31.3,2.2-31.4
				c0-0.3,0.3-0.5,0.6-0.4c0.3,0,0.5,0.3,0.4,0.6c0,0.1-1.5,13.9-2.2,31.3c-0.5,12.6,5.3,29,5.4,29.1c0.1,0.3,0,0.5-0.3,0.6
				C273.4,564.6,273.4,564.6,273.3,564.6z"></path>
			<path class="st73" d="M312.5,567.9c-0.1,0-0.2,0-0.3-0.1c-0.2-0.1-0.3-0.5-0.2-0.7c0.1-0.1,6-9.5,7.4-20.1
				c1.5-10.6,0.3-19.1,0.3-19.1c0-0.3,0.2-0.5,0.4-0.6c0.3,0,0.5,0.2,0.6,0.4c0,0.1,1.2,8.7-0.3,19.4c-1.5,10.7-7.5,20.4-7.6,20.5
				C312.9,567.9,312.7,567.9,312.5,567.9z"></path>
			<path class="st73" d="M361.5,564.3c-0.2,0-0.3-0.1-0.4-0.2c-0.2-0.2-0.1-0.5,0.1-0.7c0,0,4.8-3.8,7.5-19.5c0-0.3,0.3-0.5,0.6-0.4
				c0.3,0,0.5,0.3,0.4,0.6c-2.8,16.2-7.7,20-7.9,20.2C361.7,564.3,361.6,564.3,361.5,564.3z"></path>
		<svg viewBox="0 0 1440 770" preserveAspectRatio="xMidYMid" xmlns="http://www.w3.org/2000/svg"><path d="M465.3,545c-1.2,0-3.5-0.7-3.5-3.4l-0.3-6c0-0.3,0.2-0.5,0.5-0.5c0.3,0,0.5,0.2,0.5,0.5l0.3,6c0,2.4,2.2,2.5,2.4,2.5c0.6,0,66.6-2,70.5-2c3.6,0,5.4-1.7,8.4-5.7c12.1-21,16.8-44.8,17.9-51.7c2.5-18.3,1.6-47.6,1.5-47.9c0-0.3,0.2-0.5,0.5-0.5c0.3,0,0.5,0.2,0.5,0.5c0,0.3,1,29.6-1.6,48c-1.1,6.9-5.8,30.9-18.1,52.1c-2.8,3.7-4.9,6.1-9.2,6.1C531.9,543.1,465.9,545,465.3,545z" stroke="#71EEEE" fill-opacity="0" stroke-opacity="1" stroke-width="0.8" stroke-linecap="round" stroke-linejoin="round" arrow-end="none" markerwidth="4" markerheight="3" orient="auto" style="stroke-dasharray: 394.047, 394.047; stroke-dashoffset: 0; display: block;"></path></svg></svg>