<?xml version="1.0" standalone="no"?>
<!DOCTYPE svg PUBLIC "-//W3C//DTD SVG 20010904//EN"
 "http://www.w3.org/TR/2001/REC-SVG-20010904/DTD/svg10.dtd">
<svg version="1.0" xmlns="http://www.w3.org/2000/svg"
 width="500.000000pt" height="197.000000pt" viewBox="0 0 500.000000 197.000000"
 preserveAspectRatio="xMidYMid meet">

<g transform="translate(0.000000,197.000000) scale(0.100000,-0.100000)"
fill="#000000" stroke="none">
<path d="M0 985 l0 -985 2500 0 2500 0 0 985 0 985 -2500 0 -2500 0 0 -985z
m4110 935 c275 -29 536 -182 689 -403 181 -263 216 -615 91 -909 -64 -149
-199 -315 -334 -407 -66 -46 -219 -116 -292 -135 -151 -39 -347 -39 -498 0
-73 19 -226 89 -292 135 -82 56 -193 169 -250 254 -150 227 -196 503 -128 770
18 71 89 225 133 289 150 218 417 378 676 405 44 5 85 9 91 10 7 0 58 -4 114
-9z m-3570 -935 c16 -8 34 -25 40 -36 24 -44 -16 -68 -48 -29 -14 17 -31 21
-100 23 -77 2 -85 0 -103 -22 -15 -19 -19 -39 -19 -108 0 -76 2 -86 25 -108
21 -22 33 -25 99 -25 68 0 78 3 99 25 15 17 29 24 40 19 25 -9 21 -32 -11 -64
-33 -33 -103 -46 -184 -35 -101 14 -141 93 -122 242 8 72 17 89 57 113 41 25
182 28 227 5z m915 -1 c45 -21 67 -70 63 -137 l-3 -52 -145 -5 -145 -5 3 -35
c4 -55 30 -70 123 -70 66 0 82 3 99 20 11 11 20 25 20 30 0 15 40 12 46 -4 9
-24 -23 -72 -58 -87 -42 -18 -194 -18 -226 0 -46 25 -62 68 -62 169 0 113 15
157 62 177 46 20 181 19 223 -1z m247 -115 c31 -71 58 -131 62 -132 4 -1 34
58 68 131 47 101 66 132 80 132 10 0 21 -6 24 -13 6 -17 -133 -338 -154 -354
-9 -8 -21 -9 -31 -4 -20 11 -156 345 -147 360 4 6 15 11 25 11 14 0 32 -32 73
-131z m602 117 c44 -18 68 -70 64 -139 l-3 -52 -142 -3 -143 -3 0 -39 c0 -56
25 -70 122 -70 65 0 81 3 98 20 11 11 20 25 20 30 0 15 40 12 46 -4 9 -24 -23
-72 -58 -87 -20 -9 -67 -14 -119 -13 -139 1 -169 35 -169 190 0 148 34 183
173 184 44 0 92 -6 111 -14z m272 -11 l6 -25 42 25 c25 14 58 25 79 25 32 0
37 -3 37 -24 0 -25 -21 -36 -72 -36 -14 0 -40 -12 -57 -26 l-31 -26 0 -118 c0
-93 -3 -122 -15 -134 -9 -8 -22 -13 -30 -10 -12 5 -15 37 -15 183 0 98 3 181
7 184 15 16 43 6 49 -18z m-1526 -169 c0 -138 -3 -167 -16 -181 -12 -12 -19
-13 -30 -4 -11 9 -14 44 -14 151 l0 139 -97 -3 -98 -3 -5 -123 c-5 -116 -7
-125 -29 -143 -34 -28 -95 -23 -99 8 -3 18 3 23 31 28 l35 7 4 125 c5 166 2
163 184 163 l134 0 0 -164z"/>
<path d="M3826 1874 c-89 -20 -185 -56 -261 -99 -192 -108 -346 -291 -417
-495 -65 -187 -65 -412 0 -600 107 -308 382 -542 706 -599 77 -14 245 -14 322
0 344 61 622 312 725 654 26 88 37 306 20 397 -67 356 -315 627 -663 729 -98
28 -331 36 -432 13z m729 -596 c5 -5 -18 -182 -30 -234 -4 -20 5 -24 145 -59
83 -21 150 -40 150 -44 1 -3 -21 -117 -47 -253 l-48 -248 -712 0 -712 0 -10
53 c-6 28 -31 169 -56 312 -25 143 -47 270 -50 282 -5 19 6 25 114 61 l120 40
123 -19 c180 -28 178 -28 178 24 l0 42 186 102 186 101 229 -77 c126 -43 231
-80 234 -83z"/>
<path d="M4102 939 l3 -484 302 -3 c281 -2 302 -1 307 15 19 59 93 459 87 466
-10 10 -271 71 -277 64 -3 -2 -9 -30 -14 -62 -11 -67 -19 -78 -51 -73 -23 3
-24 6 -24 88 l0 85 37 -3 c43 -4 42 -6 59 131 8 60 9 101 3 106 -5 5 -99 39
-209 76 -110 37 -206 70 -213 72 -10 4 -12 -93 -10 -478z"/>
<path d="M3910 1324 c-85 -48 -161 -92 -168 -99 -9 -8 -11 -24 -7 -48 6 -32
11 -37 44 -43 20 -3 42 -7 49 -9 9 -3 12 -59 12 -235 l0 -230 -25 0 c-28 0
-25 -16 -60 259 -13 107 -29 199 -34 204 -9 9 -220 46 -269 47 l-22 0 2 -357
3 -358 320 0 320 0 3 478 c1 262 -1 477 -5 477 -5 0 -78 -39 -163 -86z"/>
<path d="M3300 1136 c-60 -20 -96 -38 -98 -48 -3 -18 104 -613 113 -628 3 -6
26 -10 50 -10 38 0 45 3 50 23 10 41 1 690 -10 693 -5 1 -53 -12 -105 -30z"/>
<path d="M3745 1121 c-1 -3 10 -103 26 -221 16 -118 29 -216 29 -217 0 -2 5
-3 10 -3 6 0 10 80 10 219 l0 219 -36 4 c-19 2 -37 2 -39 -1z"/>
<path d="M4450 951 c0 -64 2 -71 20 -71 14 0 21 9 25 38 4 20 9 49 11 65 4 20
2 27 -9 27 -9 0 -22 3 -31 6 -14 5 -16 -4 -16 -65z"/>
<path d="M1273 939 c-18 -5 -34 -18 -37 -29 -3 -11 -9 -29 -12 -40 -5 -19 -1
-20 115 -20 l121 0 0 28 c0 38 -11 51 -51 62 -41 12 -93 12 -136 -1z"/>
<path d="M2126 940 c-35 -11 -46 -25 -46 -62 l0 -28 121 0 c116 0 120 1 115
20 -3 11 -9 29 -12 40 -9 34 -109 50 -178 30z"/>
</g>
</svg>
