<?xml version="1.0" encoding="utf-8"?>
<svg id="master-artboard" xmlns="http://www.w3.org/2000/svg" height="197px" style="shape-rendering:geometricPrecision; text-rendering:geometricPrecision; image-rendering:optimizeQuality; fill-rule:evenodd; clip-rule:evenodd" version="1.0" width="500px" viewBox="0 0 500.000000 197.000000" preserveAspectRatio="xMidYMid meet"><rect id="ee-background" x="0" y="0" width="500" height="197" style="fill: rgb(255, 255, 255); fill-opacity: 1; pointer-events: none;"/>

<path d="M0 985 l0 -985 2500 0 2500 0 0 985 0 985 -2500 0 -2500 0 0 -985z&#10;m4110 935 c275 -29 536 -182 689 -403 181 -263 216 -615 91 -909 -64 -149&#10;-199 -315 -334 -407 -66 -46 -219 -116 -292 -135 -151 -39 -347 -39 -498 0&#10;-73 19 -226 89 -292 135 -82 56 -193 169 -250 254 -150 227 -196 503 -128 770&#10;18 71 89 225 133 289 150 218 417 378 676 405 44 5 85 9 91 10 7 0 58 -4 114&#10;-9z m-3554 -894 c14 -15 24 -36 22 -45 -5 -25 -45 -26 -58 -2 -10 19 -20 21&#10;-99 21 -114 0 -116 -3 -116 -127 0 -120 11 -133 115 -133 59 0 73 4 99 26 34&#10;29 61 26 61 -6 0 -98 -266 -111 -318 -16 -13 23 -17 56 -17 133 0 87 3 105 21&#10;130 35 46 59 54 167 51 95 -3 100 -4 123 -32z m901 14 c38 -23 56 -73 51 -140&#10;l-3 -45 -143 -3 -143 -3 3 -42 c4 -53 28 -67 121 -67 64 0 71 2 97 30 30 32&#10;70 40 70 15 0 -31 -30 -72 -62 -86 -20 -8 -68 -14 -120 -14 -72 0 -91 3 -115&#10;21 -44 33 -53 60 -53 167 0 159 26 186 175 187 72 0 96 -4 122 -20z m241 -119&#10;l56 -134 31 64 c16 35 45 97 63 137 24 55 37 72 52 72 11 0 23 -7 26 -15 8&#10;-19 -137 -345 -159 -359 -12 -8 -20 -7 -31 4 -23 24 -149 338 -142 356 3 9 15&#10;14 27 12 17 -2 33 -31 77 -137z m602 124 c43 -22 62 -65 58 -133 l-3 -57 -142&#10;-3 -143 -3 0 -32 c0 -59 18 -71 109 -75 80 -4 81 -4 110 27 37 39 71 42 71 5&#10;0 -40 -48 -81 -104 -89 -71 -11 -165 0 -195 23 -41 30 -51 60 -51 158 0 163&#10;27 194 173 194 59 0 98 -5 117 -15z m268 -13 l3 -22 31 21 c37 27 116 38 128&#10;18 15 -24 -8 -49 -46 -49 -42 0 -89 -23 -104 -49 -5 -11 -10 -71 -10 -134 0&#10;-119 -9 -147 -45 -133 -13 4 -15 34 -15 184 0 98 3 182 7 186 15 15 48 1 51&#10;-22z m-1528 -171 c0 -176 -6 -200 -44 -185 -14 5 -16 26 -16 150 l0 145 -97&#10;-3 -98 -3 -5 -121 c-6 -146 -17 -167 -84 -162 -31 2 -42 8 -44 22 -4 21 13 36&#10;45 36 21 0 21 5 25 124 4 171 -1 166 180 166 l138 0 0 -169z" transform="matrix(0.1000000044703484, 0, 0, -0.1000000044703484, 0, 197.00000587105754)" style="stroke: rgb(253, 255, 240); stroke-opacity: 0;"/><path d="M3826 1874 c-89 -20 -185 -56 -261 -99 -192 -108 -346 -291 -417&#10;-495 -65 -187 -65 -412 0 -600 107 -308 382 -542 706 -599 77 -14 245 -14 322&#10;0 344 61 622 312 725 654 26 88 37 306 20 397 -67 356 -315 627 -663 729 -98&#10;28 -331 36 -432 13z m729 -596 c5 -5 -18 -182 -30 -234 -4 -20 5 -24 145 -59&#10;83 -21 150 -40 150 -44 1 -3 -21 -117 -47 -253 l-48 -248 -712 0 -712 0 -10&#10;53 c-6 28 -31 169 -56 312 -25 143 -47 270 -50 282 -5 19 6 25 114 61 l120 40&#10;123 -19 c180 -28 178 -28 178 24 l0 42 186 102 186 101 229 -77 c126 -43 231&#10;-80 234 -83z" transform="matrix(0.1000000044703484, 0, 0, -0.1000000044703484, 0, 197.00000587105754)"/><path d="M4102 939 l3 -484 302 -3 c281 -2 302 -1 307 15 19 59 93 459 87 466&#10;-10 10 -271 71 -277 64 -3 -2 -9 -30 -14 -62 -11 -67 -19 -78 -51 -73 -23 3&#10;-24 6 -24 88 l0 85 37 -3 c43 -4 42 -6 59 131 8 60 9 101 3 106 -5 5 -99 39&#10;-209 76 -110 37 -206 70 -213 72 -10 4 -12 -93 -10 -478z" transform="matrix(0.1000000044703484, 0, 0, -0.1000000044703484, 0, 197.00000587105754)"/><path d="M3910 1324 c-85 -48 -161 -92 -168 -99 -9 -8 -11 -24 -7 -48 6 -32&#10;11 -37 44 -43 20 -3 42 -7 49 -9 9 -3 12 -59 12 -235 l0 -230 -25 0 c-28 0&#10;-25 -16 -60 259 -13 107 -29 199 -34 204 -9 9 -220 46 -269 47 l-22 0 2 -357&#10;3 -358 320 0 320 0 3 478 c1 262 -1 477 -5 477 -5 0 -78 -39 -163 -86z" transform="matrix(0.1000000044703484, 0, 0, -0.1000000044703484, 0, 197.00000587105754)"/><path d="M3300 1136 c-60 -20 -96 -38 -98 -48 -3 -18 104 -613 113 -628 3 -6&#10;26 -10 50 -10 38 0 45 3 50 23 10 41 1 690 -10 693 -5 1 -53 -12 -105 -30z" transform="matrix(0.1000000044703484, 0, 0, -0.1000000044703484, 0, 197.00000587105754)"/><path d="M3745 1121 c-1 -3 10 -103 26 -221 16 -118 29 -216 29 -217 0 -2 5&#10;-3 10 -3 6 0 10 80 10 219 l0 219 -36 4 c-19 2 -37 2 -39 -1z" transform="matrix(0.1000000044703484, 0, 0, -0.1000000044703484, 0, 197.00000587105754)"/><path d="M4450 951 c0 -64 2 -71 20 -71 14 0 21 9 25 38 4 20 9 49 11 65 4 20&#10;2 27 -9 27 -9 0 -22 3 -31 6 -14 5 -16 -4 -16 -65z" transform="matrix(0.1000000044703484, 0, 0, -0.1000000044703484, 0, 197.00000587105754)"/><path d="M1237 982 c-10 -10 -17 -31 -17 -45 l0 -27 115 0 115 0 0 28 c0 48&#10;-26 62 -117 62 -65 0 -83 -3 -96 -18z" transform="matrix(0.1000000044703484, 0, 0, -0.1000000044703484, 0, 197.00000587105754)"/><path d="M2087 982 c-10 -10 -17 -31 -17 -45 l0 -27 115 0 115 0 0 29 c0 50&#10;-21 61 -114 61 -68 0 -86 -3 -99 -18z" transform="matrix(0.1000000044703484, 0, 0, -0.1000000044703484, 0, 197.00000587105754)"/>
</svg>