<?xml version="1.0" encoding="utf-8"?>
<!-- Generator: Adobe Illustrator 16.0.0, SVG Export Plug-In . SVG Version: 6.00 Build 0)  -->
<!DOCTYPE svg PUBLIC "-//W3C//DTD SVG 1.1//EN" "http://www.w3.org/Graphics/SVG/1.1/DTD/svg11.dtd">
<svg version="1.1" id="Слой_1" xmlns="http://www.w3.org/2000/svg" xmlns:xlink="http://www.w3.org/1999/xlink" x="0px" y="0px"
	 width="80px" height="80px" viewBox="0 0 80 80" style="enable-background:new 0 0 80 80;" xml:space="preserve">
<style type="text/css">
<![CDATA[
	.st0{fill:none;stroke:#FFFFFF;stroke-width:0.9;stroke-miterlimit:10;}
	.st1{fill:none;stroke:#FFFFFF;stroke-width:0.9091;stroke-linecap:round;stroke-linejoin:round;stroke-miterlimit:10;}
	.st2{fill:none;stroke:#FFFFFF;stroke-width:0.9;stroke-linecap:round;stroke-miterlimit:10;}
	.st3{fill:none;stroke:#FFFFFF;stroke-width:0.73;stroke-miterlimit:10;}
	.st4{fill:none;stroke:#FFFFFF;stroke-width:0.8214;stroke-miterlimit:10;}
	.st5{fill:none;stroke:#FFFFFF;stroke-width:0.8;stroke-miterlimit:10;}
	.st6{fill:none;stroke:#FFFFFF;stroke-width:0.8438;stroke-linejoin:round;stroke-miterlimit:10;}
	.st7{fill:none;stroke:#FFFFFF;stroke-width:0.8259;stroke-miterlimit:10;}
	.st8{fill:none;stroke:#FFFFFF;stroke-width:0.9091;stroke-linejoin:round;stroke-miterlimit:10;}
	.st9{fill:none;stroke:#FFFFFF;stroke-width:0.7299;stroke-miterlimit:10;}
	.st10{fill:none;stroke:#FFFFFF;stroke-width:0.7;stroke-linecap:round;stroke-linejoin:round;stroke-miterlimit:10;}
	.st11{fill:none;stroke:#FFFFFF;stroke-width:0.8;stroke-linecap:round;stroke-linejoin:round;stroke-miterlimit:10;}
	.st12{fill:none;stroke:#FFFFFF;stroke-width:0.9;stroke-linecap:round;stroke-linejoin:round;stroke-miterlimit:10;}
	.st13{fill:none;stroke:#FFFFFF;stroke-width:0.8438;stroke-linecap:round;stroke-linejoin:round;stroke-miterlimit:10;}
	.st14{fill:#FFFFFF;}
	.st15{fill:none;stroke:#FFFFFF;stroke-width:0.8214;stroke-linecap:round;stroke-linejoin:round;stroke-miterlimit:10;}
	.st16{fill:none;stroke:#FFFFFF;stroke-width:0.9;stroke-linecap:square;stroke-miterlimit:10;}
	.st17{fill:#00EFEF;}
]]>
</style>
<g>
	<path class="st17" d="M40,0.9c21.6,0,39.1,17.5,39.1,39.1S61.6,79.1,40,79.1S0.9,61.6,0.9,40S18.4,0.9,40,0.9 M40,0
		C17.9,0,0,17.9,0,40s17.9,40,40,40c22.1,0,40-17.9,40-40S62.1,0,40,0L40,0z"/>
</g>
<g>
	<g>
		<path class="st14" d="M44,43.5c1,0,1,2,0,2h-8c-1,0-1-2,0-2H44 M44,42.7h-8c-0.9,0-1.5,0.8-1.5,1.8s0.7,1.8,1.5,1.8h8
			c0.9,0,1.5-0.8,1.5-1.8S44.9,42.7,44,42.7L44,42.7z"/>
	</g>
	<line class="st0" x1="36.1" y1="26.5" x2="44.1" y2="26.5"/>
	<path class="st16" d="M52,41v13.5c0,0.6-0.4,1-1,1H29c-0.6,0-1-0.4-1-1V41.2"/>
	<g>
		<path class="st14" d="M30,31.5c0.6,0,1,0.4,1,1c0,0.6-0.4,1-1,1c-0.6,0-1-0.4-1-1C29,31.9,29.4,31.5,30,31.5 M30,30.8
			c-0.9,0-1.7,0.8-1.7,1.7s0.8,1.7,1.7,1.7c0.9,0,1.7-0.8,1.7-1.7S30.9,30.8,30,30.8L30,30.8z"/>
	</g>
	<g>
		<path class="st14" d="M30,24.5c2.9,0,5.6,1.5,7.1,4.2c2.1,3.9,0.6,8.7-3.3,10.8c-1.2,0.6-2.5,0.9-3.8,0.9c-2.9,0-5.6-1.5-7.1-4.2
			c-2.1-3.9-0.6-8.7,3.3-10.8C27.4,24.8,28.7,24.5,30,24.5 M30,23.6c-1.4,0-2.9,0.4-4.2,1c-4.3,2.3-6,7.7-3.7,12
			c1.5,2.9,4.6,4.7,7.9,4.7c1.4,0,2.9-0.4,4.2-1c4.3-2.3,6-7.7,3.7-12C36.3,25.4,33.3,23.6,30,23.6L30,23.6z"/>
	</g>
	<g>
		<path class="st14" d="M50,24.5c2.9,0,5.6,1.5,7.1,4.2c2.1,3.9,0.6,8.7-3.3,10.8c-1.2,0.6-2.5,0.9-3.8,0.9c-2.9,0-5.6-1.5-7.1-4.2
			c-2.1-3.9-0.6-8.7,3.3-10.8C47.4,24.8,48.7,24.5,50,24.5 M50,23.6c-1.4,0-2.9,0.4-4.2,1c-4.3,2.3-6,7.7-3.7,12
			c1.6,2.9,4.6,4.7,7.9,4.7c1.4,0,2.9-0.4,4.2-1c2.1-1.1,3.6-3,4.3-5.3c0.7-2.3,0.5-4.7-0.7-6.8C56.3,25.4,53.3,23.6,50,23.6
			L50,23.6z"/>
	</g>
	<g>
		<path class="st14" d="M50,31.5c0.6,0,1,0.4,1,1c0,0.6-0.4,1-1,1s-1-0.4-1-1C49,31.9,49.4,31.5,50,31.5 M50,30.8
			c-0.9,0-1.7,0.8-1.7,1.7s0.8,1.7,1.7,1.7s1.7-0.8,1.7-1.7S50.9,30.8,50,30.8L50,30.8z"/>
	</g>
	<g>
		<line class="st10" x1="30" y1="26.7" x2="30" y2="28.7"/>
		<line class="st10" x1="24.8" y1="35.7" x2="26.5" y2="34.7"/>
		<line class="st10" x1="35.2" y1="35.7" x2="33.5" y2="34.7"/>
	</g>
	<g>
		<path class="st14" d="M46,48.5c0.6,0,1,0.4,1,1s-0.4,1-1,1s-1-0.4-1-1S45.4,48.5,46,48.5 M46,47.8c-0.9,0-1.7,0.8-1.7,1.7
			s0.8,1.7,1.7,1.7s1.7-0.8,1.7-1.7S46.9,47.8,46,47.8L46,47.8z"/>
	</g>
	<g>
		<path class="st14" d="M34,48.5c0.6,0,1,0.4,1,1s-0.4,1-1,1s-1-0.4-1-1S33.4,48.5,34,48.5 M34,47.8c-0.9,0-1.7,0.8-1.7,1.7
			s0.8,1.7,1.7,1.7s1.7-0.8,1.7-1.7S34.9,47.8,34,47.8L34,47.8z"/>
	</g>
	<g>
		<line class="st10" x1="50" y1="26.7" x2="50" y2="28.7"/>
		<line class="st10" x1="44.8" y1="35.7" x2="46.5" y2="34.7"/>
		<line class="st10" x1="55.2" y1="35.7" x2="53.5" y2="34.7"/>
	</g>
</g>
</svg>
