<?xml version="1.0" encoding="utf-8"?>
<!-- Generator: Adobe Illustrator 16.0.0, SVG Export Plug-In . SVG Version: 6.00 Build 0)  -->
<!DOCTYPE svg PUBLIC "-//W3C//DTD SVG 1.1//EN" "http://www.w3.org/Graphics/SVG/1.1/DTD/svg11.dtd">
<svg version="1.1" id="Слой_1" xmlns="http://www.w3.org/2000/svg" xmlns:xlink="http://www.w3.org/1999/xlink" x="0px" y="0px"
	 width="80px" height="80px" viewBox="0 0 80 80" style="enable-background:new 0 0 80 80;" xml:space="preserve">
<style type="text/css">
<![CDATA[
	.st0{fill:none;stroke:#FFFFFF;stroke-width:0.9;stroke-miterlimit:10;}
	.st1{fill:none;stroke:#FFFFFF;stroke-width:0.9091;stroke-linecap:round;stroke-linejoin:round;stroke-miterlimit:10;}
	.st2{fill:none;stroke:#FFFFFF;stroke-width:0.9;stroke-linecap:round;stroke-miterlimit:10;}
	.st3{fill:none;stroke:#FFFFFF;stroke-width:0.73;stroke-miterlimit:10;}
	.st4{fill:none;stroke:#FFFFFF;stroke-width:0.8214;stroke-miterlimit:10;}
	.st5{fill:none;stroke:#FFFFFF;stroke-width:0.8;stroke-miterlimit:10;}
	.st6{fill:none;stroke:#FFFFFF;stroke-width:0.8438;stroke-linejoin:round;stroke-miterlimit:10;}
	.st7{fill:none;stroke:#FFFFFF;stroke-width:0.8259;stroke-miterlimit:10;}
	.st8{fill:none;stroke:#FFFFFF;stroke-width:0.9091;stroke-linejoin:round;stroke-miterlimit:10;}
	.st9{fill:none;stroke:#FFFFFF;stroke-width:0.7299;stroke-miterlimit:10;}
	.st10{fill:none;stroke:#FFFFFF;stroke-width:0.7;stroke-linecap:round;stroke-linejoin:round;stroke-miterlimit:10;}
	.st11{fill:none;stroke:#FFFFFF;stroke-width:0.8;stroke-linecap:round;stroke-linejoin:round;stroke-miterlimit:10;}
	.st12{fill:none;stroke:#FFFFFF;stroke-width:0.9;stroke-linecap:round;stroke-linejoin:round;stroke-miterlimit:10;}
	.st13{fill:none;stroke:#FFFFFF;stroke-width:0.8438;stroke-linecap:round;stroke-linejoin:round;stroke-miterlimit:10;}
	.st14{fill:#FFFFFF;}
	.st15{fill:none;stroke:#FFFFFF;stroke-width:0.8214;stroke-linecap:round;stroke-linejoin:round;stroke-miterlimit:10;}
	.st16{fill:none;stroke:#FFFFFF;stroke-width:0.9;stroke-linecap:square;stroke-miterlimit:10;}
	.st17{fill:#00EFEF;}
]]>
</style>
<g>
	<path class="st17" d="M40,0.9c21.6,0,39.1,17.5,39.1,39.1S61.6,79.1,40,79.1S0.9,61.6,0.9,40S18.4,0.9,40,0.9 M40,0
		C17.9,0,0,17.9,0,40s17.9,40,40,40s40-17.9,40-40S62.1,0,40,0L40,0z"/>
</g>
<g>
	<path class="st5" d="M52.4,31.1c2.1,1.1,3.9,2.5,5.6,4.1c0.4,0.3,0.5,0.5,0,0.9c-1,0.9-1.9,1.9-2.8,2.9c-0.3,0.4-0.5,0.3-0.9,0
		c-7.7-7.2-19.5-7.6-27.5-1c-0.2,0.2-0.5,0.4-0.7,0.6c-1,0.9-1,0.9-1.9,0c-0.7-0.7-1.5-1.5-2.2-2.2c-0.4-0.4-0.5-0.6,0-1
		c6.7-6.1,14.4-8.3,23.3-6.7C47.8,29,50.2,29.8,52.4,31.1z"/>
	<path class="st5" d="M48.5,39.2c1,0.5,2.2,1.4,3.2,2.4c0.3,0.3,0.4,0.4,0,0.8c-1,0.9-1.9,1.9-2.8,2.9c-0.3,0.3-0.5,0.3-0.8,0
		c-4.1-3.5-8.6-4-13.4-1.9c-1,0.5-1.9,1.2-2.8,2c-0.4,0.4-0.6,0.3-0.9,0c-0.9-0.9-1.8-1.8-2.7-2.7c-0.3-0.3-0.4-0.4,0-0.8
		C33.9,36.3,42.1,35.7,48.5,39.2z"/>
	<path class="st5" d="M44,46.9c2.1,1.2,2.1,1.1,0.4,2.8c-1.3,1.3-2.7,2.7-4,4c-0.4,0.4-0.5,0.3-0.8,0c-1.7-1.7-3.4-3.4-5.1-5
		c-0.3-0.3-0.3-0.5,0.1-0.8C37.3,45.6,40.9,45.2,44,46.9z"/>
</g>
</svg>
