<?xml version="1.0" encoding="utf-8"?>
<!-- Generator: Adobe Illustrator 16.0.0, SVG Export Plug-In . SVG Version: 6.00 Build 0)  -->
<!DOCTYPE svg PUBLIC "-//W3C//DTD SVG 1.1//EN" "http://www.w3.org/Graphics/SVG/1.1/DTD/svg11.dtd">
<svg version="1.1" id="Слой_1" xmlns="http://www.w3.org/2000/svg" xmlns:xlink="http://www.w3.org/1999/xlink" x="0px" y="0px"
	 width="80px" height="80px" viewBox="0 0 80 80" style="enable-background:new 0 0 80 80;" xml:space="preserve">
<style type="text/css">
<![CDATA[
	.st0{fill:none;stroke:#FFFFFF;stroke-width:0.9;stroke-miterlimit:10;}
	.st1{fill:none;stroke:#FFFFFF;stroke-width:0.9091;stroke-linecap:round;stroke-linejoin:round;stroke-miterlimit:10;}
	.st2{fill:none;stroke:#FFFFFF;stroke-width:0.9;stroke-linecap:round;stroke-miterlimit:10;}
	.st3{fill:none;stroke:#FFFFFF;stroke-width:0.73;stroke-miterlimit:10;}
	.st4{fill:none;stroke:#FFFFFF;stroke-width:0.8214;stroke-miterlimit:10;}
	.st5{fill:none;stroke:#FFFFFF;stroke-width:0.8;stroke-miterlimit:10;}
	.st6{fill:none;stroke:#FFFFFF;stroke-width:0.8438;stroke-linejoin:round;stroke-miterlimit:10;}
	.st7{fill:none;stroke:#FFFFFF;stroke-width:0.8259;stroke-miterlimit:10;}
	.st8{fill:none;stroke:#FFFFFF;stroke-width:0.9091;stroke-linejoin:round;stroke-miterlimit:10;}
	.st9{fill:none;stroke:#FFFFFF;stroke-width:0.7299;stroke-miterlimit:10;}
	.st10{fill:none;stroke:#FFFFFF;stroke-width:0.7;stroke-linecap:round;stroke-linejoin:round;stroke-miterlimit:10;}
	.st11{fill:none;stroke:#FFFFFF;stroke-width:0.8;stroke-linecap:round;stroke-linejoin:round;stroke-miterlimit:10;}
	.st12{fill:none;stroke:#FFFFFF;stroke-width:0.9;stroke-linecap:round;stroke-linejoin:round;stroke-miterlimit:10;}
	.st13{fill:none;stroke:#FFFFFF;stroke-width:0.8438;stroke-linecap:round;stroke-linejoin:round;stroke-miterlimit:10;}
	.st14{fill:#FFFFFF;}
	.st15{fill:none;stroke:#FFFFFF;stroke-width:0.8214;stroke-linecap:round;stroke-linejoin:round;stroke-miterlimit:10;}
	.st16{fill:none;stroke:#FFFFFF;stroke-width:0.9;stroke-linecap:square;stroke-miterlimit:10;}
	.st17{fill:#00EFEF;}
]]>
</style>
<g>
	<path class="st17" d="M40,0.9c21.6,0,39.1,17.5,39.1,39.1S61.6,79.1,40,79.1S0.9,61.6,0.9,40S18.4,0.9,40,0.9 M40,0
		C17.9,0,0,17.9,0,40s17.9,40,40,40c22.1,0,40-17.9,40-40S62.1,0,40,0L40,0z"/>
</g>
<g>
	<path class="st7" d="M56.5,41.3c0,0.6-0.5,1.1-1.1,1.1H24.6c-0.6,0-1.1-0.5-1.1-1.1V26.1c0-0.6,0.5-1.1,1.1-1.1h30.7
		c0.6,0,1.1,0.5,1.1,1.1V41.3z"/>
	<g>
		<path class="st15" d="M38.4,45.2h-2c-0.6,0-1.5,0.4-2,0.8c-0.4,0.5-0.8,0.8-0.8,0.8"/>
		<line class="st4" x1="38.4" y1="42.3" x2="38.4" y2="45.1"/>
	</g>
	<g>
		<path class="st15" d="M41.6,45.2h2c0.6,0,1.5,0.4,2,0.8c0.4,0.5,0.8,0.8,0.8,0.8"/>
		<line class="st4" x1="41.6" y1="42.3" x2="41.6" y2="45.1"/>
	</g>
	<path class="st4" d="M26.6,55c-0.6,0-1.1-0.5-1.1-1.1v-5.8c0-0.6,0.5-1.1,1.1-1.1h26.8c0.6,0,1.1,0.5,1.1,1.1v5.8
		c0,0.6-0.5,1.1-1.1,1.1H26.6z"/>
	<path class="st9" d="M40,53c-1.1,0-2-0.9-2-2c0-1.1,0.9-2,2-2c1.1,0,2,0.9,2,2C42,52.1,41.1,53,40,53z"/>
	<path class="st9" d="M48.2,53c-1.1,0-2-0.9-2-2c0-1.1,0.9-2,2-2c1.1,0,2,0.9,2,2C50.2,52.1,49.3,53,48.2,53z"/>
	<path class="st3" d="M31.8,53c-1.1,0-2-0.9-2-2c0-1.1,0.9-2,2-2c1.1,0,2,0.9,2,2C33.8,52.1,32.9,53,31.8,53z"/>
</g>
</svg>
