<?xml version="1.0" encoding="utf-8"?>
<!-- Generator: Adobe Illustrator 16.0.0, SVG Export Plug-In . SVG Version: 6.00 Build 0)  -->
<!DOCTYPE svg PUBLIC "-//W3C//DTD SVG 1.1//EN" "http://www.w3.org/Graphics/SVG/1.1/DTD/svg11.dtd">
<svg version="1.1" id="Слой_1" xmlns="http://www.w3.org/2000/svg" xmlns:xlink="http://www.w3.org/1999/xlink" x="0px" y="0px"
	 width="80px" height="80px" viewBox="0 0 80 80" style="enable-background:new 0 0 80 80;" xml:space="preserve">
<style type="text/css">
<![CDATA[
	.st0{fill:none;stroke:#FFFFFF;stroke-width:0.9;stroke-miterlimit:10;}
	.st1{fill:none;stroke:#FFFFFF;stroke-width:0.9091;stroke-linecap:round;stroke-linejoin:round;stroke-miterlimit:10;}
	.st2{fill:none;stroke:#FFFFFF;stroke-width:0.9;stroke-linecap:round;stroke-miterlimit:10;}
	.st3{fill:none;stroke:#FFFFFF;stroke-width:0.73;stroke-miterlimit:10;}
	.st4{fill:none;stroke:#FFFFFF;stroke-width:0.8214;stroke-miterlimit:10;}
	.st5{fill:none;stroke:#FFFFFF;stroke-width:0.8;stroke-miterlimit:10;}
	.st6{fill:none;stroke:#FFFFFF;stroke-width:0.8438;stroke-linejoin:round;stroke-miterlimit:10;}
	.st7{fill:none;stroke:#FFFFFF;stroke-width:0.8259;stroke-miterlimit:10;}
	.st8{fill:none;stroke:#FFFFFF;stroke-width:0.9091;stroke-linejoin:round;stroke-miterlimit:10;}
	.st9{fill:none;stroke:#FFFFFF;stroke-width:0.7299;stroke-miterlimit:10;}
	.st10{fill:none;stroke:#FFFFFF;stroke-width:0.7;stroke-linecap:round;stroke-linejoin:round;stroke-miterlimit:10;}
	.st11{fill:none;stroke:#FFFFFF;stroke-width:0.8;stroke-linecap:round;stroke-linejoin:round;stroke-miterlimit:10;}
	.st12{fill:none;stroke:#FFFFFF;stroke-width:0.9;stroke-linecap:round;stroke-linejoin:round;stroke-miterlimit:10;}
	.st13{fill:none;stroke:#FFFFFF;stroke-width:0.8438;stroke-linecap:round;stroke-linejoin:round;stroke-miterlimit:10;}
	.st14{fill:#FFFFFF;}
	.st15{fill:none;stroke:#FFFFFF;stroke-width:0.8214;stroke-linecap:round;stroke-linejoin:round;stroke-miterlimit:10;}
	.st16{fill:none;stroke:#FFFFFF;stroke-width:0.9;stroke-linecap:square;stroke-miterlimit:10;}
	.st17{fill:#00EFEF;}
]]>
</style>
<g>
	<path class="st17" d="M40,0.9c21.6,0,39.1,17.5,39.1,39.1S61.6,79.1,40,79.1S0.9,61.6,0.9,40S18.4,0.9,40,0.9 M40,0
		C17.9,0,0,17.9,0,40s17.9,40,40,40s40-17.9,40-40S62.1,0,40,0L40,0z"/>
</g>
<g>
	<line class="st1" x1="56.8" y1="41.9" x2="56.8" y2="56"/>
	<path class="st8" d="M56.8,46.1c0,0-5.8,0-6.5,0c-0.8,0-1.6-0.2-2.2-0.7c-0.4-0.4-2.4-2.5-2.4-2.5"/>
	<path class="st8" d="M41,46.1l3.9,4.3c0.5,0.6,1.6,1,2.4,1h9.4"/>
	<path class="st8" d="M52.5,29.2l-2.3-3.8c-0.8-1.3-2.6-1.7-3.9-0.9l-26.1,16"/>
	<path class="st8" d="M20.7,40.1l-1.2,0.7c-0.3,0.2-0.3,0.6,0,0.8l4.2,2.7c0.3,0.2,0.9,0.2,1.2,0l5.1-3.1c0.3-0.2,0.6-0.4,0.7-0.4
		l0,0c0,0,0.1,0,0.1-0.1c2.4-1.4,5.5-0.7,7,1.7l0,0c0,0.1,0.3-0.1,0.6-0.3l15.5-9.5c0.3-0.2,0.4-0.6,0.2-1l-3.1-5"/>
	<path class="st1" d="M27.2,46.3l1.8,3c0.2,0.3,0.6,0.4,1,0.2l1.5-0.9c0.3-0.2,0.4-0.6,0.2-1l-1.5-2.4c-0.2-0.3-0.2-0.3,0,0l1.9,3"
		/>
	<path class="st1" d="M39.3,46.8l13.8-8.5c1-0.6,1.3-1.9,0.7-2.9l-1.2-1.9"/>
	<path class="st1" d="M32.1,48.3l-1.5-2.4c-0.4-0.7-0.4-0.7,0,0l0.7,1.2c0.4,0.7,1,1.7,1.4,2.3c0.4,0.6,1.2,0.7,1.8,0.3l4.6-2.8"/>
	<polyline class="st1" points="32.1,48.3 29.9,44.7 32.1,48.3 	"/>
</g>
</svg>
