<?xml version="1.0" encoding="utf-8"?>
<!-- Generator: Adobe Illustrator 16.0.0, SVG Export Plug-In . SVG Version: 6.00 Build 0)  -->
<!DOCTYPE svg PUBLIC "-//W3C//DTD SVG 1.1//EN" "http://www.w3.org/Graphics/SVG/1.1/DTD/svg11.dtd">
<svg version="1.1" id="Слой_1" xmlns="http://www.w3.org/2000/svg" xmlns:xlink="http://www.w3.org/1999/xlink" x="0px" y="0px"
	 width="36px" height="36px" viewBox="0 0 36 36" style="enable-background:new 0 0 36 36;" xml:space="preserve">
<style type="text/css">
<![CDATA[
	.st0{fill:none;stroke:#00EFEF;stroke-width:0.6;stroke-linecap:round;stroke-miterlimit:10;}
	.st1{fill:none;stroke:#00EFEF;stroke-width:0.7;stroke-linecap:round;stroke-miterlimit:10;}
	.st2{fill:none;stroke:#00EFEF;stroke-width:0.6;stroke-linejoin:round;stroke-miterlimit:10;}
	.st3{fill:none;stroke:#00EFEF;stroke-width:0.7;stroke-linecap:square;stroke-miterlimit:10;}
	.st4{fill:none;stroke:#00EFEF;stroke-width:0.5506;stroke-miterlimit:10;}
	.st5{fill:none;stroke:#00EFEF;stroke-width:0.7;stroke-miterlimit:10;}
	.st6{fill:none;stroke:#00EFEF;stroke-width:0.6;stroke-linecap:round;stroke-linejoin:round;stroke-miterlimit:10;}
	.st7{fill:#00EFEF;}
	.st8{fill:none;stroke:#00EFEF;stroke-width:0.5476;stroke-linecap:round;stroke-linejoin:round;stroke-miterlimit:10;}
	.st9{fill:none;stroke:#00EFEF;stroke-width:0.6;stroke-miterlimit:10;}
	.st10{fill:none;stroke:#00EFEF;stroke-width:0.5953;stroke-linecap:round;stroke-linejoin:round;stroke-miterlimit:10;}
]]>
</style>
<g>
	<path class="st9" d="M20.9,21.5c1.1-0.8,1.8-2.1,1.8-3.5c0-1.4-0.7-2.7-1.8-3.5"/>
	<path class="st9" d="M24.1,9.7c2.8,1.7,4.7,4.8,4.7,8.3s-1.9,6.6-4.7,8.3"/>
	<path class="st9" d="M22.5,23.9c2-1.2,3.3-3.4,3.3-5.9s-1.3-4.7-3.3-5.9"/>
	<path class="st9" d="M20.9,14.5c1.1,0.8,1.8,2.1,1.8,3.5c0,1.4-0.7,2.7-1.8,3.5"/>
	<path class="st9" d="M24.1,26.3c2.8-1.7,4.7-4.8,4.7-8.3s-1.9-6.6-4.7-8.3"/>
	<path class="st9" d="M22.5,12.1c2,1.2,3.3,3.4,3.3,5.9s-1.3,4.7-3.3,5.9"/>
	<path class="st9" d="M11.4,22H8.1c-0.5,0-1-0.4-1-1V15c0-0.5,0.4-1,1-1h3.3"/>
	<path class="st9" d="M11.4,22l5.5,5.9c0.2,0.2,0.3,0.1,0.3-0.1V8.2c0-0.3-0.1-0.3-0.3-0.1L11.4,14"/>
	<line class="st9" x1="11.4" y1="14" x2="11.4" y2="22"/>
</g>
</svg>
