<?xml version="1.0" encoding="utf-8"?>
<!-- Generator: Adobe Illustrator 16.0.0, SVG Export Plug-In . SVG Version: 6.00 Build 0)  -->
<!DOCTYPE svg PUBLIC "-//W3C//DTD SVG 1.1//EN" "http://www.w3.org/Graphics/SVG/1.1/DTD/svg11.dtd">
<svg version="1.1" id="Слой_1" xmlns="http://www.w3.org/2000/svg" xmlns:xlink="http://www.w3.org/1999/xlink" x="0px" y="0px"
	 width="36px" height="36px" viewBox="0 0 36 36" style="enable-background:new 0 0 36 36;" xml:space="preserve">
<style type="text/css">
<![CDATA[
	.st0{fill:none;stroke:#00EFEF;stroke-width:0.6;stroke-linecap:round;stroke-miterlimit:10;}
	.st1{fill:none;stroke:#00EFEF;stroke-width:0.7;stroke-linecap:round;stroke-miterlimit:10;}
	.st2{fill:none;stroke:#00EFEF;stroke-width:0.6;stroke-linejoin:round;stroke-miterlimit:10;}
	.st3{fill:none;stroke:#00EFEF;stroke-width:0.7;stroke-linecap:square;stroke-miterlimit:10;}
	.st4{fill:none;stroke:#00EFEF;stroke-width:0.5506;stroke-miterlimit:10;}
	.st5{fill:none;stroke:#00EFEF;stroke-width:0.7;stroke-miterlimit:10;}
	.st6{fill:none;stroke:#00EFEF;stroke-width:0.6;stroke-linecap:round;stroke-linejoin:round;stroke-miterlimit:10;}
	.st7{fill:#00EFEF;}
	.st8{fill:none;stroke:#00EFEF;stroke-width:0.5476;stroke-linecap:round;stroke-linejoin:round;stroke-miterlimit:10;}
	.st9{fill:none;stroke:#00EFEF;stroke-width:0.6;stroke-miterlimit:10;}
	.st10{fill:none;stroke:#00EFEF;stroke-width:0.5953;stroke-linecap:round;stroke-linejoin:round;stroke-miterlimit:10;}
]]>
</style>
<g>
	<path class="st6" d="M16.4,15.6c0,0.9,0.7,1.6,1.6,1.6c0.9,0,1.6-0.7,1.6-1.6c0-0.9-0.7-1.6-1.6-1.6C17.1,14,16.4,14.7,16.4,15.6z"
		/>
	<path class="st6" d="M16.7,24.9H16c-0.4,0-0.7-0.5-0.7-1.2V20c0-0.7,0.5-1.2,1.2-1.2h3c0.7,0,1.2,0.5,1.2,1.2v3.7
		c0,0.7-0.3,1.2-0.7,1.2h-0.7"/>
	<path class="st6" d="M16.7,24.9v3.7c0,0.2-0.2,0.4-0.4,0.4H9.4C9.2,29,9,28.8,9,28.6V16.4c0-0.2,0.1-0.5,0.3-0.7l8.5-8.6
		c0.2-0.2,0.4-0.2,0.6,0l3.5,3.6c0.2,0.2,0.3,0.1,0.3-0.1V8c0-0.2,0.2-0.4,0.4-0.4l2.1,0C24.8,7.6,25,7.8,25,8v5.6
		c0,0.2,0,0.3,0.2,0.4l1.6,1.7c0.2,0.2,0.3,0.5,0.3,0.7v12.2c0,0.2-0.2,0.4-0.4,0.4h-5.3"/>
	<line class="st6" x1="19.3" y1="24.9" x2="19.3" y2="29"/>
</g>
</svg>
