<?xml version="1.0" encoding="utf-8"?>
<!-- Generator: Adobe Illustrator 16.0.0, SVG Export Plug-In . SVG Version: 6.00 Build 0)  -->
<!DOCTYPE svg PUBLIC "-//W3C//DTD SVG 1.1//EN" "http://www.w3.org/Graphics/SVG/1.1/DTD/svg11.dtd">
<svg version="1.1" id="Слой_1" xmlns="http://www.w3.org/2000/svg" xmlns:xlink="http://www.w3.org/1999/xlink" x="0px" y="0px"
	 width="36px" height="36px" viewBox="0 0 36 36" style="enable-background:new 0 0 36 36;" xml:space="preserve">
<style type="text/css">
<![CDATA[
	.st0{fill:none;stroke:#00EFEF;stroke-width:0.6;stroke-linecap:round;stroke-miterlimit:10;}
	.st1{fill:none;stroke:#00EFEF;stroke-width:0.7;stroke-linecap:round;stroke-miterlimit:10;}
	.st2{fill:none;stroke:#00EFEF;stroke-width:0.6;stroke-linejoin:round;stroke-miterlimit:10;}
	.st3{fill:none;stroke:#00EFEF;stroke-width:0.7;stroke-linecap:square;stroke-miterlimit:10;}
	.st4{fill:none;stroke:#00EFEF;stroke-width:0.5506;stroke-miterlimit:10;}
	.st5{fill:none;stroke:#00EFEF;stroke-width:0.7;stroke-miterlimit:10;}
	.st6{fill:none;stroke:#00EFEF;stroke-width:0.6;stroke-linecap:round;stroke-linejoin:round;stroke-miterlimit:10;}
	.st7{fill:#00EFEF;}
	.st8{fill:none;stroke:#00EFEF;stroke-width:0.5476;stroke-linecap:round;stroke-linejoin:round;stroke-miterlimit:10;}
	.st9{fill:none;stroke:#00EFEF;stroke-width:0.6;stroke-miterlimit:10;}
	.st10{fill:none;stroke:#00EFEF;stroke-width:0.5953;stroke-linecap:round;stroke-linejoin:round;stroke-miterlimit:10;}
]]>
</style>
<g>
	<line class="st6" x1="29.7" y1="19.2" x2="29.7" y2="28"/>
	<path class="st2" d="M29.7,21.8c0,0-3.6,0-4.1,0c-0.5,0-1-0.1-1.4-0.4c-0.2-0.2-1.5-1.6-1.5-1.6"/>
	<path class="st2" d="M19.9,21.8l2.5,2.7c0.3,0.4,1,0.6,1.5,0.6h5.9"/>
	<path class="st2" d="M27.1,11.2l-1.5-2.4C25.1,8,24,7.8,23.2,8.3l-16.3,10"/>
	<path class="st2" d="M7.2,18.1l-0.7,0.5c-0.2,0.1-0.2,0.3,0,0.5L9,20.7c0.2,0.1,0.5,0.1,0.7,0l3.2-1.9c0.2-0.1,0.4-0.2,0.4-0.3l0,0
		c0,0,0,0,0.1,0c1.5-0.9,3.4-0.4,4.4,1.1l0,0c0,0,0.2,0,0.4-0.2l9.7-6c0.2-0.1,0.3-0.4,0.1-0.6l-1.9-3.1"/>
	<path class="st6" d="M11.3,22l1.2,1.9c0.1,0.2,0.4,0.3,0.6,0.1l0.9-0.6c0.2-0.1,0.3-0.4,0.1-0.6l-0.9-1.5c-0.1-0.2-0.1-0.2,0,0
		l1.2,1.9"/>
	<path class="st6" d="M18.8,22.3l8.6-5.3c0.6-0.4,0.8-1.2,0.4-1.8L27.1,14"/>
	<path class="st6" d="M14.3,23.2l-0.9-1.5c-0.3-0.4-0.3-0.4,0,0l0.5,0.8c0.3,0.4,0.6,1,0.9,1.4c0.2,0.4,0.7,0.4,1.2,0.2l2.9-1.8"/>
	<polyline class="st6" points="14.3,23.2 13,20.9 14.3,23.2 	"/>
</g>
</svg>
