<?xml version="1.0" encoding="utf-8"?>
<!-- Generator: Adobe Illustrator 16.0.0, SVG Export Plug-In . SVG Version: 6.00 Build 0)  -->
<!DOCTYPE svg PUBLIC "-//W3C//DTD SVG 1.1//EN" "http://www.w3.org/Graphics/SVG/1.1/DTD/svg11.dtd">
<svg version="1.1" id="Слой_1" xmlns="http://www.w3.org/2000/svg" xmlns:xlink="http://www.w3.org/1999/xlink" x="0px" y="0px"
	 width="36px" height="36px" viewBox="0 0 36 36" style="enable-background:new 0 0 36 36;" xml:space="preserve">
<style type="text/css">
<![CDATA[
	.st0{fill:none;stroke:#00EFEF;stroke-width:0.6;stroke-linecap:round;stroke-miterlimit:10;}
	.st1{fill:none;stroke:#00EFEF;stroke-width:0.7;stroke-linecap:round;stroke-miterlimit:10;}
	.st2{fill:none;stroke:#00EFEF;stroke-width:0.6;stroke-linejoin:round;stroke-miterlimit:10;}
	.st3{fill:none;stroke:#00EFEF;stroke-width:0.7;stroke-linecap:square;stroke-miterlimit:10;}
	.st4{fill:none;stroke:#00EFEF;stroke-width:0.5506;stroke-miterlimit:10;}
	.st5{fill:none;stroke:#00EFEF;stroke-width:0.7;stroke-miterlimit:10;}
	.st6{fill:none;stroke:#00EFEF;stroke-width:0.6;stroke-linecap:round;stroke-linejoin:round;stroke-miterlimit:10;}
	.st7{fill:#00EFEF;}
	.st8{fill:none;stroke:#00EFEF;stroke-width:0.5476;stroke-linecap:round;stroke-linejoin:round;stroke-miterlimit:10;}
	.st9{fill:none;stroke:#00EFEF;stroke-width:0.6;stroke-miterlimit:10;}
	.st10{fill:none;stroke:#00EFEF;stroke-width:0.5953;stroke-linecap:round;stroke-linejoin:round;stroke-miterlimit:10;}
]]>
</style>
<g>
	<path class="st9" d="M26.6,11.1c1.5,0.8,2.7,1.7,3.9,2.8c0.3,0.2,0.3,0.4,0,0.6c-0.7,0.6-1.3,1.3-2,2c-0.2,0.2-0.3,0.2-0.6,0
		c-5.4-4.9-13.5-5.2-19-0.7c-0.2,0.1-0.3,0.3-0.5,0.4c-0.7,0.6-0.7,0.6-1.3,0c-0.5-0.5-1-1-1.5-1.5c-0.3-0.3-0.3-0.4,0-0.7
		c4.6-4.2,10-5.8,16.1-4.6C23.4,9.7,25.1,10.3,26.6,11.1z"/>
	<path class="st9" d="M23.9,16.8c0.7,0.3,1.5,1,2.2,1.6c0.2,0.2,0.3,0.3,0,0.5c-0.7,0.6-1.3,1.3-2,2c-0.2,0.2-0.3,0.2-0.6,0
		c-2.8-2.4-5.9-2.8-9.3-1.3c-0.7,0.3-1.3,0.8-1.9,1.4c-0.3,0.3-0.4,0.2-0.6,0c-0.6-0.6-1.3-1.3-1.9-1.9c-0.2-0.2-0.3-0.3,0-0.5
		C13.7,14.7,19.4,14.4,23.9,16.8z"/>
	<path class="st9" d="M20.7,22.1c1.5,0.8,1.5,0.8,0.3,2c-0.9,0.9-1.9,1.8-2.8,2.8c-0.2,0.3-0.4,0.2-0.6,0c-1.2-1.2-2.3-2.3-3.5-3.5
		C14,23.1,14,23,14.3,22.8C16.1,21.2,18.6,20.9,20.7,22.1z"/>
</g>
</svg>
