<?xml version="1.0" encoding="utf-8"?>
<!-- Generator: Adobe Illustrator 16.0.0, SVG Export Plug-In . SVG Version: 6.00 Build 0)  -->
<!DOCTYPE svg PUBLIC "-//W3C//DTD SVG 1.1//EN" "http://www.w3.org/Graphics/SVG/1.1/DTD/svg11.dtd">
<svg version="1.1" id="Слой_1" xmlns="http://www.w3.org/2000/svg" xmlns:xlink="http://www.w3.org/1999/xlink" x="0px" y="0px"
	 width="36px" height="36px" viewBox="0 0 36 36" style="enable-background:new 0 0 36 36;" xml:space="preserve">
<style type="text/css">
<![CDATA[
	.st0{fill:none;stroke:#00EFEF;stroke-width:0.6;stroke-linecap:round;stroke-miterlimit:10;}
	.st1{fill:none;stroke:#00EFEF;stroke-width:0.7;stroke-linecap:round;stroke-miterlimit:10;}
	.st2{fill:none;stroke:#00EFEF;stroke-width:0.6;stroke-linejoin:round;stroke-miterlimit:10;}
	.st3{fill:none;stroke:#00EFEF;stroke-width:0.7;stroke-linecap:square;stroke-miterlimit:10;}
	.st4{fill:none;stroke:#00EFEF;stroke-width:0.5506;stroke-miterlimit:10;}
	.st5{fill:none;stroke:#00EFEF;stroke-width:0.7;stroke-miterlimit:10;}
	.st6{fill:none;stroke:#00EFEF;stroke-width:0.6;stroke-linecap:round;stroke-linejoin:round;stroke-miterlimit:10;}
	.st7{fill:#00EFEF;}
	.st8{fill:none;stroke:#00EFEF;stroke-width:0.5476;stroke-linecap:round;stroke-linejoin:round;stroke-miterlimit:10;}
	.st9{fill:none;stroke:#00EFEF;stroke-width:0.6;stroke-miterlimit:10;}
	.st10{fill:none;stroke:#00EFEF;stroke-width:0.5953;stroke-linecap:round;stroke-linejoin:round;stroke-miterlimit:10;}
]]>
</style>
<g>
	<g>
		<path class="st7" d="M28.2,8.6c0.1,0,0.2,0.1,0.2,0.1v10.1c0,0.1-0.1,0.1-0.2,0.1H7.8c-0.1,0-0.2-0.1-0.2-0.1V8.8
			c0-0.1,0.1-0.1,0.2-0.1H28.2 M28.2,8H7.8C7.3,8,7,8.4,7,8.8v10.1c0,0.4,0.3,0.7,0.8,0.7h20.5c0.4,0,0.8-0.3,0.8-0.7V8.8
			C29,8.4,28.7,8,28.2,8L28.2,8z"/>
	</g>
	<g>
		<line class="st4" x1="19.1" y1="19.5" x2="19.1" y2="22.4"/>
	</g>
	<g>
		<line class="st4" x1="16.9" y1="19.5" x2="16.9" y2="22.4"/>
	</g>
	<g>
		<path class="st7" d="M27.2,22.6c0.1,0,0.2,0.1,0.2,0.2v4.3c0,0.1-0.1,0.2-0.2,0.2H8.8c-0.1,0-0.2-0.1-0.2-0.2v-4.3
			c0-0.1,0.1-0.2,0.2-0.2H27.2 M27.2,22H8.8C8.3,22,8,22.4,8,22.8v4.3C8,27.6,8.3,28,8.8,28h18.5c0.4,0,0.8-0.4,0.8-0.8v-4.3
			C28,22.4,27.7,22,27.2,22L27.2,22z"/>
	</g>
	<g>
		<g>
			<path class="st7" d="M18,24l0,0.4c0.3,0,0.6,0.3,0.6,0.6c0,0.3-0.3,0.6-0.6,0.6c-0.2,0-0.3-0.1-0.4-0.2c-0.1-0.1-0.2-0.3-0.2-0.4
				c0-0.3,0.3-0.6,0.6-0.6V24 M18,24c-0.5,0-1,0.4-1,1c0,0.6,0.4,1,1,1c0,0,0,0,0,0c0.5,0,1-0.4,1-1C19,24.4,18.6,24,18,24
				C18,24,18,24,18,24L18,24z"/>
		</g>
		<g>
			<path class="st7" d="M23,24l0,0.4c0.2,0,0.3,0.1,0.4,0.2c0.1,0.1,0.2,0.3,0.2,0.4c0,0.3-0.3,0.6-0.6,0.6c-0.2,0-0.3-0.1-0.4-0.2
				c-0.1-0.1-0.2-0.3-0.2-0.4c0-0.3,0.3-0.6,0.6-0.6V24 M23,24c-0.5,0-1,0.4-1,1c0,0.6,0.4,1,1,1c0,0,0,0,0,0c0.5,0,1-0.4,1-1
				C24,24.4,23.5,24,23,24C23,24,23,24,23,24L23,24z"/>
		</g>
		<g>
			<path class="st7" d="M13,24l0,0.4c0.3,0,0.6,0.3,0.6,0.6c0,0.3-0.3,0.6-0.6,0.6c-0.2,0-0.3-0.1-0.4-0.2c-0.1-0.1-0.2-0.3-0.2-0.4
				c0-0.3,0.3-0.6,0.6-0.6V24 M13,24c-0.5,0-1,0.4-1,1c0,0.6,0.4,1,1,1c0,0,0,0,0,0c0.5,0,1-0.4,1-1C14,24.4,13.6,24,13,24
				C13,24,13,24,13,24L13,24z"/>
		</g>
	</g>
</g>
</svg>
