<?xml version="1.0" encoding="UTF-8" standalone="no"?>
<svg
   xmlns:dc="http://purl.org/dc/elements/1.1/"
   xmlns:cc="http://creativecommons.org/ns#"
   xmlns:rdf="http://www.w3.org/1999/02/22-rdf-syntax-ns#"
   xmlns:svg="http://www.w3.org/2000/svg"
   xmlns="http://www.w3.org/2000/svg"
   id="svg79"
   version="1.1"
   viewBox="0 0 307.922 74.003998"
   height="74.003998"
   width="307.922">
  <metadata
     id="metadata85">
    <rdf:RDF>
      <cc:Work
         rdf:about="">
        <dc:format>image/svg+xml</dc:format>
        <dc:type
           rdf:resource="http://purl.org/dc/dcmitype/StillImage" />
        <dc:title></dc:title>
      </cc:Work>
    </rdf:RDF>
  </metadata>
  <defs
     id="defs83" />
  <switch
     transform="translate(-15.539,-12.998)"
     id="switch77">
    <g
       id="g75">
      <path
         style="fill:#1b181c"
         id="path59"
         d="m 107.625,57.581 c 0,4.329 -3.433,6.916 -9.104,6.916 -3.284,0 -5.722,-0.896 -7.514,-1.891 v -3.781 c 2.19,1.344 4.776,2.188 7.364,2.188 2.587,0 5.672,-0.596 5.672,-3.433 0,-6.667 -13.334,-2.835 -13.334,-11.543 0,-3.483 2.339,-7.214 8.807,-7.214 2.587,0 4.727,0.746 6.368,1.542 v 3.583 c -1.344,-0.797 -3.383,-1.691 -5.971,-1.691 -2.537,0 -5.621,0.646 -5.621,3.78 0,4.877 13.333,1.793 13.333,11.544 z m 25.176,-8.21 V 64.1 h -3.582 V 49.371 c 0,-4.726 -2.039,-6.965 -6.368,-6.965 -2.886,0 -5.424,0.795 -7.115,1.492 V 64.1 h -3.582 V 29.818 h 3.582 v 10.598 c 1.891,-0.796 4.528,-1.592 7.513,-1.592 6.07,0 9.552,3.831 9.552,10.547 z m 25.028,-0.198 v 7.463 c 0,6.866 -6.966,7.861 -10.199,7.861 -3.234,0 -10.399,-0.995 -10.399,-8.011 0,-8.209 10.697,-8.159 12.986,-8.159 2.238,0 3.979,0.249 3.979,0.249 0,-4.678 -2.786,-6.17 -7.264,-6.17 -3.582,0 -6.319,0.846 -7.264,1.194 v -3.483 a 22.415,22.415 0 0 1 7.463,-1.293 c 6.966,0 10.698,3.582 10.698,10.349 z m -3.582,2.686 c 0,0 -1.643,-0.298 -4.429,-0.298 -2.985,0 -9.006,0.348 -9.006,4.925 0,3.932 3.732,4.678 6.817,4.678 3.084,0 6.617,-0.746 6.617,-4.528 z m 29.901,0.15 c 0,10.349 -6.169,12.488 -11.344,12.488 -2.139,0 -4.18,-0.349 -6.17,-0.945 v 9.753 h -3.582 V 46.686 c 0,-1.842 0.747,-7.861 10.2,-7.861 4.081,-0.001 10.896,1.739 10.896,13.184 z m -3.582,-0.05 c 0,-8.807 -4.179,-9.852 -7.313,-9.852 -4.379,0 -6.618,1.493 -6.618,4.428 V 59.92 c 1.941,0.846 4.031,1.244 6.17,1.244 5.473,0 7.761,-2.736 7.761,-9.205 z m 29.953,0.1 c 0,0.945 -0.1,1.742 -0.1,1.742 h -18.111 c 0.448,4.975 2.936,7.114 8.061,7.114 3.632,0 6.418,-0.597 8.508,-1.841 v 3.682 c -2.388,1.145 -5.323,1.741 -8.856,1.741 -5.174,0 -11.344,-2.14 -11.344,-12.488 0,-2.638 -0.398,-13.185 10.896,-13.185 11.294,0 10.946,12.289 10.946,13.235 z m -3.683,-1.444 c 0,-1.193 -0.397,-8.408 -7.264,-8.408 -4.876,0 -6.916,2.289 -7.265,8.408 z" />
      <path
         style="fill:#3c66b0"
         id="path61"
         d="m 231.017,57.581 c 0,4.329 -3.433,6.916 -9.104,6.916 -3.284,0 -5.722,-0.896 -7.514,-1.891 v -3.781 c 2.189,1.344 4.776,2.188 7.364,2.188 2.587,0 5.672,-0.596 5.672,-3.433 0,-6.667 -13.334,-2.835 -13.334,-11.543 0,-3.483 2.338,-7.214 8.807,-7.214 2.587,0 4.727,0.746 6.368,1.542 v 3.583 c -1.344,-0.797 -3.383,-1.691 -5.971,-1.691 -2.537,0 -5.622,0.646 -5.622,3.78 0,4.877 13.334,1.793 13.334,11.544 z m 25.773,-5.572 c 0,10.349 -6.169,12.488 -11.344,12.488 -2.14,0 -4.18,-0.349 -6.17,-0.945 v 9.753 h -3.582 V 46.686 c 0,-1.842 0.747,-7.861 10.199,-7.861 4.081,-0.001 10.897,1.739 10.897,13.184 z m -3.582,-0.05 c 0,-8.807 -4.18,-9.852 -7.314,-9.852 -4.378,0 -6.617,1.493 -6.617,4.428 V 59.92 c 1.941,0.846 4.03,1.244 6.17,1.244 5.472,0 7.761,-2.736 7.761,-9.205 z m 27.813,-2.786 v 7.463 c 0,6.866 -6.966,7.861 -10.199,7.861 -3.234,0 -10.399,-0.995 -10.399,-8.011 0,-8.209 10.697,-8.159 12.986,-8.159 2.239,0 3.98,0.249 3.98,0.249 0,-4.678 -2.786,-6.17 -7.265,-6.17 -3.582,0 -6.318,0.846 -7.264,1.194 v -3.483 a 22.42,22.42 0 0 1 7.463,-1.293 c 6.967,0 10.698,3.582 10.698,10.349 z m -3.582,2.686 c 0,0 -1.643,-0.298 -4.429,-0.298 -2.984,0 -9.005,0.348 -9.005,4.925 0,3.932 3.731,4.678 6.816,4.678 3.084,0 6.617,-0.746 6.617,-4.528 z m 12.538,-8.258 V 64.1 h -3.582 V 41.262 c 1.294,-0.547 6.07,-2.389 12.041,-2.389 v 3.434 c -3.434,0.099 -6.418,0.746 -8.459,1.294 z M 323.461,64.1 h -4.775 l -9.504,-10.896 -3.086,3.334 V 64.1 h -3.582 V 29.818 h 3.582 v 21.643 l 11.146,-12.189 h 4.875 L 311.52,50.665 Z" />
      <path
         style="fill:#29abe2"
         id="path63"
         d="M 76.045,24.358 56.028,12.998 56.015,28.503 76.045,39.898 Z" />
      <path
         style="fill:#3c66b0"
         id="path65"
         d="M 56.028,12.998 15.56,35.833 v 15.729 l 33.889,-19.473 6.566,-3.586" />
      <path
         style="fill:#23b5e9"
         id="path67"
         d="M 36.122,48.023 15.561,35.863 15.549,51.58 36.125,63.638 Z" />
      <path
         style="fill:#29abe2"
         id="path69"
         d="m 76.045,48.011 -20.053,-12.182 0.011,16.757 20.07,11.06 z" />
      <path
         style="fill:#23b5e9"
         id="path71"
         d="M 36.146,71.427 15.539,59.304 v 15.808 l 20.583,11.89 z" />
      <path
         style="fill:#3c66b0"
         id="path73"
         d="M 76.06,48.011 36.11,71.415 V 87.002 L 69.671,67.538 76.06,63.622 M 55.992,35.829 36.11,48.034 36.098,63.646 55.992,52.575 l 0.011,0.011" />
    </g>
  </switch>
</svg>
