<?xml version="1.0" encoding="utf-8"?>
<!-- Generator: Adobe Illustrator 16.0.0, SVG Export Plug-In . SVG Version: 6.00 Build 0)  -->
<!DOCTYPE svg PUBLIC "-//W3C//DTD SVG 1.1//EN" "http://www.w3.org/Graphics/SVG/1.1/DTD/svg11.dtd">
<svg version="1.1" id="Слой_1" xmlns="http://www.w3.org/2000/svg" xmlns:xlink="http://www.w3.org/1999/xlink" x="0px" y="0px"
	 width="36px" height="36px" viewBox="0 0 36 36" style="enable-background:new 0 0 36 36;" xml:space="preserve">
<style type="text/css">
<![CDATA[
	.st0{fill:none;stroke:#FFFFFF;stroke-width:0.6;stroke-linecap:round;stroke-miterlimit:10;}
	.st1{fill:none;stroke:#FFFFFF;stroke-width:0.7;stroke-linecap:round;stroke-miterlimit:10;}
	.st2{fill:none;stroke:#FFFFFF;stroke-width:0.6;stroke-linejoin:round;stroke-miterlimit:10;}
	.st3{fill:none;stroke:#FFFFFF;stroke-width:0.7;stroke-linecap:square;stroke-miterlimit:10;}
	.st4{fill:none;stroke:#FFFFFF;stroke-width:0.5506;stroke-miterlimit:10;}
	.st5{fill:none;stroke:#FFFFFF;stroke-width:0.7;stroke-miterlimit:10;}
	.st6{fill:none;stroke:#FFFFFF;stroke-width:0.6;stroke-linecap:round;stroke-linejoin:round;stroke-miterlimit:10;}
	.st7{fill:#FFFFFF;}
	.st8{fill:none;stroke:#FFFFFF;stroke-width:0.5476;stroke-linecap:round;stroke-linejoin:round;stroke-miterlimit:10;}
	.st9{fill:none;stroke:#FFFFFF;stroke-width:0.6;stroke-miterlimit:10;}
	.st10{fill:none;stroke:#FFFFFF;stroke-width:0.5953;stroke-linecap:round;stroke-linejoin:round;stroke-miterlimit:10;}
]]>
</style>
<line class="st5" x1="15.2" y1="8.4" x2="21" y2="8.4"/>
<path class="st3" d="M26.3,19v9c0,0.5-0.5,1-1,1H10.8c-0.6,0-1-0.4-1-1v-9"/>
<g>
	<path class="st7" d="M10.8,12c0.4,0,0.7,0.3,0.7,0.7c0,0.4-0.3,0.7-0.7,0.7c-0.4,0-0.7-0.3-0.7-0.7C10.1,12.3,10.4,12,10.8,12
		 M10.8,11.4c-0.7,0-1.3,0.6-1.3,1.3c0,0.7,0.6,1.3,1.3,1.3c0.7,0,1.3-0.6,1.3-1.3C12.1,12,11.5,11.4,10.8,11.4L10.8,11.4z"/>
</g>
<g>
	<path class="st7" d="M10.8,7c2.1,0,4.1,1.1,5.1,3c1.5,2.8,0.4,6.2-2.4,7.7c-0.9,0.5-1.8,0.7-2.7,0.7c-2.1,0-4.1-1.1-5.1-3
		c-1.5-2.8-0.4-6.2,2.4-7.7C8.9,7.2,9.9,7,10.8,7 M10.8,6.3c-1.1,0-2.1,0.3-3,0.7c-1.5,0.8-2.7,2.2-3.2,3.8
		c-0.5,1.6-0.3,3.3,0.5,4.8c1.1,2.1,3.3,3.4,5.7,3.4c1.1,0,2.1-0.3,3-0.7c1.5-0.8,2.7-2.2,3.2-3.8c0.5-1.6,0.3-3.3-0.5-4.8
		C15.4,7.6,13.2,6.3,10.8,6.3L10.8,6.3z"/>
</g>
<g>
	<path class="st7" d="M25.2,7c2.1,0,4.1,1.1,5.1,3c1.5,2.8,0.4,6.2-2.4,7.7c-0.9,0.5-1.8,0.7-2.7,0.7c-2.1,0-4.1-1.1-5.1-3
		c-1.5-2.8-0.4-6.2,2.4-7.7C23.4,7.2,24.3,7,25.2,7 M25.2,6.3c-1.1,0-2.1,0.3-3,0.7c-1.5,0.8-2.7,2.2-3.2,3.8
		c-0.5,1.6-0.3,3.3,0.5,4.8c1.1,2.1,3.3,3.4,5.7,3.4c1.1,0,2.1-0.3,3-0.7c1.5-0.8,2.7-2.2,3.2-3.8c0.5-1.6,0.3-3.3-0.5-4.8
		C29.8,7.6,27.6,6.3,25.2,6.3L25.2,6.3z"/>
</g>
<g>
	<path class="st7" d="M25.2,12c0.4,0,0.7,0.3,0.7,0.7c0,0.4-0.3,0.7-0.7,0.7s-0.7-0.3-0.7-0.7C24.5,12.3,24.8,12,25.2,12 M25.2,11.4
		c-0.7,0-1.3,0.6-1.3,1.3c0,0.7,0.6,1.3,1.3,1.3c0.7,0,1.3-0.6,1.3-1.3C26.5,12,26,11.4,25.2,11.4L25.2,11.4z"/>
</g>
<g>
	<path class="st7" d="M22.3,24.6c0.4,0,0.7,0.3,0.7,0.7S22.7,26,22.3,26s-0.7-0.3-0.7-0.7S21.9,24.6,22.3,24.6 M22.3,24
		c-0.7,0-1.3,0.6-1.3,1.3c0,0.7,0.6,1.3,1.3,1.3c0.7,0,1.3-0.6,1.3-1.3C23.7,24.6,23.1,24,22.3,24L22.3,24z"/>
</g>
<g>
	<path class="st7" d="M13.7,24.6c0.4,0,0.7,0.3,0.7,0.7S14.1,26,13.7,26s-0.7-0.3-0.7-0.7S13.3,24.6,13.7,24.6 M13.7,24
		c-0.7,0-1.3,0.6-1.3,1.3c0,0.7,0.6,1.3,1.3,1.3c0.7,0,1.3-0.6,1.3-1.3C15,24.6,14.4,24,13.7,24L13.7,24z"/>
</g>
<line class="st1" x1="14" y1="21.5" x2="22" y2="21.5"/>
</svg>
