<?xml version="1.0" encoding="utf-8"?>
<!-- Generator: Adobe Illustrator 16.0.0, SVG Export Plug-In . SVG Version: 6.00 Build 0)  -->
<!DOCTYPE svg PUBLIC "-//W3C//DTD SVG 1.1//EN" "http://www.w3.org/Graphics/SVG/1.1/DTD/svg11.dtd">
<svg version="1.1" id="Слой_1" xmlns="http://www.w3.org/2000/svg" xmlns:xlink="http://www.w3.org/1999/xlink" x="0px" y="0px"
	 width="36px" height="36px" viewBox="0 0 36 36" style="enable-background:new 0 0 36 36;" xml:space="preserve">
<style type="text/css">
<![CDATA[
	.st0{fill:none;stroke:#FFFFFF;stroke-width:0.6;stroke-linecap:round;stroke-miterlimit:10;}
	.st1{fill:none;stroke:#FFFFFF;stroke-width:0.7;stroke-linecap:round;stroke-miterlimit:10;}
	.st2{fill:none;stroke:#FFFFFF;stroke-width:0.6;stroke-linejoin:round;stroke-miterlimit:10;}
	.st3{fill:none;stroke:#FFFFFF;stroke-width:0.7;stroke-linecap:square;stroke-miterlimit:10;}
	.st4{fill:none;stroke:#FFFFFF;stroke-width:0.5506;stroke-miterlimit:10;}
	.st5{fill:none;stroke:#FFFFFF;stroke-width:0.7;stroke-miterlimit:10;}
	.st6{fill:none;stroke:#FFFFFF;stroke-width:0.6;stroke-linecap:round;stroke-linejoin:round;stroke-miterlimit:10;}
	.st7{fill:#FFFFFF;}
	.st8{fill:none;stroke:#FFFFFF;stroke-width:0.5476;stroke-linecap:round;stroke-linejoin:round;stroke-miterlimit:10;}
	.st9{fill:none;stroke:#FFFFFF;stroke-width:0.6;stroke-miterlimit:10;}
	.st10{fill:none;stroke:#FFFFFF;stroke-width:0.5953;stroke-linecap:round;stroke-linejoin:round;stroke-miterlimit:10;}
]]>
</style>
<g>
	<path class="st7" d="M28,8.8L28,8.8c0.1,0,0.4,0.3,0.4,0.4v10c0,0.2-0.1,0.4-0.4,0.4H8c-0.2,0-0.4-0.1-0.4-0.4v-10
		C7.6,9,7.8,8.8,8,8.8H28 M28,8.2H8c-0.5,0-1,0.5-1,1v10c0,0.6,0.5,1,1,1h20c0.6,0,1-0.5,1-1v-10C29,8.7,28.5,8.2,28,8.2L28,8.2z"/>
</g>
<line class="st0" x1="28.5" y1="27.8" x2="7.5" y2="27.8"/>
<line class="st0" x1="16.7" y1="22.9" x2="12.7" y2="22.9"/>
<line class="st0" x1="13.6" y1="24.8" x2="9.6" y2="24.8"/>
<line class="st0" x1="20.1" y1="24.8" x2="16.1" y2="24.8"/>
<line class="st0" x1="26.5" y1="24.8" x2="22.5" y2="24.8"/>
<line class="st0" x1="23.3" y1="22.9" x2="19.3" y2="22.9"/>
</svg>
